<?xml version="1.0" encoding="UTF-8" standalone="no"?>
<!-- Created with Inkscape (http://www.inkscape.org/) -->

<svg
   xmlns:dc="http://purl.org/dc/elements/1.1/"
   xmlns:cc="http://creativecommons.org/ns#"
   xmlns:rdf="http://www.w3.org/1999/02/22-rdf-syntax-ns#"
   xmlns:svg="http://www.w3.org/2000/svg"
   xmlns="http://www.w3.org/2000/svg"
   xmlns:sodipodi="http://sodipodi.sourceforge.net/DTD/sodipodi-0.dtd"
   xmlns:inkscape="http://www.inkscape.org/namespaces/inkscape"
   width="468"
   height="60"
   viewBox="0 0 468 60"
   id="svg2"
   version="1.1"
   inkscape:version="0.91 r13725"
   inkscape:export-filename="C:\Users\thoni\Documents\Projects\ticketOmatic\all.png"
   inkscape:export-xdpi="90"
   inkscape:export-ydpi="90"
   sodipodi:docname="logo.svg">
  <defs
     id="defs4">
    <marker
       inkscape:stockid="DotM"
       orient="auto"
       refY="0.0"
       refX="0.0"
       id="DotM"
       style="overflow:visible"
       inkscape:isstock="true">
      <path
         id="path4215"
         d="M -2.5,-1.0 C -2.5,1.7600000 -4.7400000,4.0 -7.5,4.0 C -10.260000,4.0 -12.5,1.7600000 -12.5,-1.0 C -12.5,-3.7600000 -10.260000,-6.0 -7.5,-6.0 C -4.7400000,-6.0 -2.5,-3.7600000 -2.5,-1.0 z "
         style="fill-rule:evenodd;stroke:#000000;stroke-width:1pt;stroke-opacity:1;fill:#000000;fill-opacity:1"
         transform="scale(0.4) translate(7.4, 1)" />
    </marker>
    <marker
       inkscape:stockid="DotL"
       orient="auto"
       refY="0.0"
       refX="0.0"
       id="DotL"
       style="overflow:visible"
       inkscape:isstock="true">
      <path
         id="path4212"
         d="M -2.5,-1.0 C -2.5,1.7600000 -4.7400000,4.0 -7.5,4.0 C -10.260000,4.0 -12.5,1.7600000 -12.5,-1.0 C -12.5,-3.7600000 -10.260000,-6.0 -7.5,-6.0 C -4.7400000,-6.0 -2.5,-3.7600000 -2.5,-1.0 z "
         style="fill-rule:evenodd;stroke:#000000;stroke-width:1pt;stroke-opacity:1;fill:#000000;fill-opacity:1"
         transform="scale(0.8) translate(7.4, 1)" />
    </marker>
  </defs>
  <sodipodi:namedview
     id="base"
     pagecolor="#ffffff"
     bordercolor="#666666"
     borderopacity="1.0"
     inkscape:pageopacity="0.0"
     inkscape:pageshadow="2"
     inkscape:zoom="2"
     inkscape:cx="203.2161"
     inkscape:cy="-8.5963922"
     inkscape:document-units="px"
     inkscape:current-layer="layer1"
     showgrid="false"
     units="px"
     inkscape:window-width="1920"
     inkscape:window-height="1017"
     inkscape:window-x="-8"
     inkscape:window-y="-8"
     inkscape:window-maximized="1" />
  <metadata
     id="metadata7">
    <rdf:RDF>
      <cc:Work
         rdf:about="">
        <dc:format>image/svg+xml</dc:format>
        <dc:type
           rdf:resource="http://purl.org/dc/dcmitype/StillImage" />
        <dc:title></dc:title>
      </cc:Work>
    </rdf:RDF>
  </metadata>
  <g
     inkscape:label="Layer 1"
     inkscape:groupmode="layer"
     id="layer1"
     transform="translate(0,-992.3622)">
    <g
       id="g4650">
      <g
         inkscape:export-ydpi="90"
         inkscape:export-xdpi="90"
         transform="matrix(1.0209829,0,0,0.99961388,-77.129587,90.757655)"
         id="g4561">
        <path
           style="fill:#ff2400;fill-opacity:1;stroke:#000000;stroke-width:2;stroke-linecap:round;stroke-linejoin:round;stroke-miterlimit:4;stroke-dasharray:none;stroke-opacity:1"
           d="m 184.52008,902.96343 142,0 c 0.003,-0.0195 -14.85012,1.61752 -13.5,26 1.35012,24.38248 13.5,27 13.5,27 l -142,0 c 0,0 14.57787,-1.00973 14,-27 -0.57787,-25.99027 -14,-26 -14,-26 z"
           id="rect4142"
           inkscape:connector-curvature="0"
           sodipodi:nodetypes="cczcczc" />
        <path
           sodipodi:nodetypes="cczcczc"
           inkscape:connector-curvature="0"
           id="path4145"
           d="m 195.89183,905.78856 119.08008,-0.17678 c 0,0 -7.10712,3.06179 -6.02703,22.56777 1.0801,19.50598 7.61802,24.42842 7.61802,24.42842 l -121.02463,0.88389 c 0,0 7.41967,-3.81299 6.95737,-24.60521 -0.46229,-20.79222 -6.60381,-23.09809 -6.60381,-23.09809 z"
           style="fill:none;fill-opacity:1;stroke:#000000;stroke-width:1.60000002;stroke-linecap:round;stroke-linejoin:round;stroke-miterlimit:4;stroke-dasharray:1.60000002, 12.80000019;stroke-dashoffset:0.16;stroke-opacity:1" />
      </g>
      <g
         inkscape:export-ydpi="90"
         inkscape:export-xdpi="90"
         id="g4551"
         transform="translate(-58.165476,95.357883)">
        <path
           sodipodi:nodetypes="cczcczc"
           inkscape:connector-curvature="0"
           id="path4553"
           d="m 162.59977,898.00432 142,0 c 0.003,-0.0195 -14.85012,1.61752 -13.5,26 1.35012,24.38248 13.5,27 13.5,27 l -142,0 c 0,0 14.57787,-1.00973 14,-27 -0.57787,-25.99027 -14,-26 -14,-26 z"
           style="fill:#ff5b00;fill-opacity:1;stroke:#000000;stroke-width:2;stroke-linecap:round;stroke-linejoin:round;stroke-miterlimit:4;stroke-dasharray:none;stroke-opacity:1" />
        <path
           style="fill:none;fill-opacity:1;stroke:#000000;stroke-width:1.60000002;stroke-linecap:round;stroke-linejoin:round;stroke-miterlimit:4;stroke-dasharray:1.60000002, 12.80000019;stroke-dashoffset:0.16;stroke-opacity:1"
           d="m 173.97152,900.82945 119.08008,-0.17678 c 0,0 -7.10712,3.06179 -6.02703,22.56777 1.0801,19.50598 7.61802,24.42842 7.61802,24.42842 l -121.02463,0.88389 c 0,0 7.41967,-3.81299 6.95737,-24.60521 -0.46229,-20.79222 -6.60381,-23.09809 -6.60381,-23.09809 z"
           id="path4555"
           inkscape:connector-curvature="0"
           sodipodi:nodetypes="cczcczc" />
      </g>
      <g
         inkscape:export-ydpi="90"
         inkscape:export-xdpi="90"
         transform="translate(38.3546,100.29826)"
         id="g4573">
        <path
           sodipodi:nodetypes="cczcczc"
           inkscape:connector-curvature="0"
           id="path4567"
           d="m 56.53375,893.06394 142,0 c 0.003,-0.0195 -14.85012,1.61752 -13.5,26 1.35012,24.38248 13.5,27 13.5,27 l -142,0 c 0,0 14.57787,-1.00973 14,-27 -0.57787,-25.99027 -14,-26 -14,-26 z"
           style="fill:#ff9200;fill-opacity:1;stroke:#000000;stroke-width:2;stroke-linecap:round;stroke-linejoin:round;stroke-miterlimit:4;stroke-dasharray:none;stroke-opacity:1" />
        <path
           style="fill:none;fill-opacity:1;stroke:#000000;stroke-width:1.60000002;stroke-linecap:round;stroke-linejoin:round;stroke-miterlimit:4;stroke-dasharray:1.60000002, 12.80000019;stroke-dashoffset:0.16;stroke-opacity:1"
           d="m 67.9055,895.88907 119.08008,-0.17678 c 0,0 -7.10712,3.06179 -6.02703,22.56777 1.0801,19.50598 7.61802,24.42842 7.61802,24.42842 l -121.02463,0.88389 c 0,0 7.41967,-3.81299 6.95737,-24.60521 -0.46229,-20.79222 -6.60381,-23.09809 -6.60381,-23.09809 z"
           id="path4569"
           inkscape:connector-curvature="0"
           sodipodi:nodetypes="cczcczc" />
      </g>
      <g
         inkscape:export-ydpi="90"
         inkscape:export-xdpi="90"
         id="g4645">
        <rect
           id="rect3340"
           width="212"
           height="53"
           x="1"
           y="993.36218"
           style="fill:#ffb300;fill-opacity:1;stroke:#000000;stroke-width:2;stroke-linecap:round;stroke-linejoin:round;stroke-miterlimit:4;stroke-dasharray:none;stroke-opacity:1"
           rx="10.3" />
        <text
           xml:space="preserve"
           style="font-style:normal;font-weight:normal;font-size:40px;line-height:125%;font-family:sans-serif;letter-spacing:0px;word-spacing:0px;fill:#000000;fill-opacity:1;stroke:none;stroke-width:1px;stroke-linecap:butt;stroke-linejoin:miter;stroke-opacity:1"
           x="3.8945313"
           y="1033.7587"
           id="text3336"
           sodipodi:linespacing="125%"><tspan
             sodipodi:role="line"
             id="tspan3338"
             x="3.8945313"
             y="1033.7587"
             style="font-style:normal;font-variant:normal;font-weight:normal;font-stretch:normal;font-family:FORQUE;-inkscape-font-specification:FORQUE">Ticket-o-Matic</tspan></text>
      </g>
    </g>
  </g>
</svg>
